<svg aria-hidden="true" style="position: absolute; width: 0; height: 0; overflow: hidden;" version="1.1" xmlns="http://www.w3.org/2000/svg" xmlns:xlink="http://www.w3.org/1999/xlink">
<defs>
<symbol id="arrow" viewBox="0 0 31 32">
<path d="M15.5 31c8.284 0 15-6.716 15-15s-6.716-15-15-15c-8.284 0-15 6.716-15 15s6.716 15 15 15z"></path>
<path d="M11.681 15.87c0-0.21 0.078-0.421 0.235-0.581l4.919-5.048c0.313-0.321 0.82-0.321 1.133 0s0.313 0.841 0 1.163l-4.353 4.466 4.353 4.466c0.313 0.321 0.313 0.842 0 1.163s-0.82 0.321-1.133 0l-4.919-5.047c-0.156-0.16-0.234-0.371-0.234-0.581z" fill="#1E2E36"></path>
</symbol>
<symbol id="calendar" viewBox="0 0 32 32">
<path fill="#fff" style="fill: var(--color2, #fff)" d="M6.667 6.333c-0.92 0-1.667 0.746-1.667 1.667v18.667c0 0.921 0.746 1.667 1.667 1.667h18.667c0.921 0 1.667-0.746 1.667-1.667v-18.667c0-0.92-0.746-1.667-1.667-1.667h-18.667zM3 8c0-2.025 1.642-3.667 3.667-3.667h18.667c2.025 0 3.667 1.642 3.667 3.667v18.667c0 2.025-1.642 3.667-3.667 3.667h-18.667c-2.025 0-3.667-1.642-3.667-3.667v-18.667z"></path>
<path fill="#fff" style="fill: var(--color2, #fff)" d="M21.333 1.667c0.552 0 1 0.448 1 1v5.333c0 0.552-0.448 1-1 1s-1-0.448-1-1v-5.333c0-0.552 0.448-1 1-1z"></path>
<path fill="#fff" style="fill: var(--color2, #fff)" d="M10.667 1.667c0.552 0 1 0.448 1 1v5.333c0 0.552-0.448 1-1 1s-1-0.448-1-1v-5.333c0-0.552 0.448-1 1-1z"></path>
<path fill="#fff" style="fill: var(--color2, #fff)" d="M3 13.333c0-0.552 0.448-1 1-1h24c0.552 0 1 0.448 1 1s-0.448 1-1 1h-24c-0.552 0-1-0.448-1-1z"></path>
</symbol>
<symbol id="cart" viewBox="0 0 31 32">
<path d="M11.613 27.29c-0.178 0-0.323 0.144-0.323 0.323s0.144 0.323 0.323 0.323c0.178 0 0.323-0.144 0.323-0.323s-0.144-0.323-0.323-0.323zM9.355 27.613c0-1.247 1.011-2.258 2.258-2.258s2.258 1.011 2.258 2.258c0 1.247-1.011 2.258-2.258 2.258s-2.258-1.011-2.258-2.258z"></path>
<path d="M25.806 27.29c-0.178 0-0.323 0.144-0.323 0.323s0.144 0.323 0.323 0.323c0.178 0 0.323-0.144 0.323-0.323s-0.144-0.323-0.323-0.323zM23.548 27.613c0-1.247 1.011-2.258 2.258-2.258s2.258 1.011 2.258 2.258c0 1.247-1.011 2.258-2.258 2.258s-2.258-1.011-2.258-2.258z"></path>
<path d="M0.323 1.806c0-0.534 0.433-0.968 0.968-0.968h5.161c0.461 0 0.858 0.326 0.949 0.778l1.136 5.674h21.141c0.288 0 0.562 0.129 0.746 0.351s0.259 0.515 0.205 0.798l-2.066 10.833c-0.162 0.817-0.607 1.551-1.255 2.073-0.646 0.52-1.454 0.797-2.283 0.784h-12.525c-0.829 0.014-1.637-0.264-2.283-0.784-0.648-0.522-1.093-1.255-1.255-2.072l-2.157-10.779c-0.008-0.030-0.014-0.060-0.018-0.092l-1.127-5.629h-4.368c-0.534 0-0.968-0.433-0.968-0.968zM8.924 9.226l1.935 9.67c0.074 0.371 0.276 0.705 0.571 0.942s0.664 0.364 1.042 0.356l0.019-0 12.561 0c0.378 0.007 0.747-0.119 1.042-0.356 0.294-0.237 0.496-0.569 0.57-0.939l0.001-0.003 1.844-9.67h-19.584z"></path>
</symbol>
<symbol id="close" viewBox="0 0 32 32"><path d="M32 3.223l-3.223-3.223-12.777 12.777-12.777-12.777-3.223 3.223 12.777 12.777-12.777 12.777 3.223 3.223 12.777-12.777 12.777 12.777 3.223-3.223-12.777-12.777 12.777-12.777z"></path></symbol>
<symbol id="facebook" viewBox="0 0 11 22">
<path fill-rule="evenodd" clip-rule="evenodd" d="M7.08464 21.7596V10.8785H10.0883L10.4863 7.12884H7.08464L7.08974 5.25209C7.08974 4.27412 7.18266 3.7501 8.58731 3.7501H10.4651V0H7.461C3.85262 0 2.58257 1.81899 2.58257 4.87797V7.12926H0.333344V10.8789H2.58257V21.7596H7.08464Z"></path>
</symbol>
<symbol id="instagram" viewBox="0 0 32 32">
<path d="M9.604 0.579c1.655-0.075 2.184-0.094 6.397-0.094h-0.005c4.215 0 4.742 0.018 6.397 0.094 1.652 0.076 2.78 0.337 3.769 0.721 1.022 0.396 1.884 0.926 2.747 1.789s1.393 1.728 1.791 2.748c0.381 0.987 0.643 2.114 0.721 3.766 0.074 1.655 0.094 2.184 0.094 6.398s-0.020 4.741-0.094 6.396c-0.078 1.651-0.339 2.779-0.721 3.766-0.398 1.020-0.928 1.886-1.791 2.748-0.862 0.863-1.726 1.394-2.746 1.791-0.987 0.384-2.116 0.645-3.768 0.721-1.655 0.075-2.182 0.094-6.396 0.094s-4.742-0.018-6.397-0.094c-1.651-0.076-2.779-0.337-3.766-0.721-1.020-0.396-1.885-0.928-2.748-1.791s-1.393-1.728-1.789-2.748c-0.383-0.987-0.645-2.114-0.721-3.766-0.075-1.655-0.094-2.182-0.094-6.396s0.019-4.743 0.093-6.398c0.074-1.651 0.336-2.779 0.721-3.766 0.398-1.020 0.928-1.886 1.791-2.748s1.728-1.393 2.748-1.789c0.987-0.384 2.114-0.645 3.766-0.721zM15.484 3.281c-0.314-0-0.604-0-0.875 0v-0.004c-2.892 0.003-3.446 0.023-4.878 0.087-1.513 0.070-2.334 0.322-2.881 0.535-0.724 0.282-1.241 0.618-1.784 1.161s-0.88 1.060-1.161 1.784c-0.212 0.547-0.465 1.368-0.534 2.881-0.074 1.636-0.089 2.124-0.089 6.268s0.015 4.635 0.089 6.27c0.069 1.513 0.322 2.334 0.534 2.88 0.282 0.724 0.618 1.24 1.161 1.783s1.060 0.879 1.784 1.16c0.547 0.212 1.368 0.465 2.881 0.535 1.636 0.074 2.127 0.090 6.27 0.090s4.634-0.016 6.269-0.090c1.513-0.069 2.334-0.321 2.881-0.535 0.724-0.281 1.24-0.617 1.783-1.16s0.88-1.058 1.161-1.782c0.212-0.546 0.465-1.367 0.534-2.88 0.074-1.636 0.091-2.127 0.091-6.268s-0.016-4.632-0.091-6.268c-0.069-1.513-0.322-2.334-0.534-2.88-0.282-0.724-0.618-1.241-1.161-1.784s-1.059-0.879-1.783-1.16c-0.547-0.212-1.368-0.465-2.881-0.534-1.636-0.074-2.127-0.089-6.269-0.089l-0.517-0zM8.034 16c0-4.4 3.568-7.968 7.968-7.968h-0c4.4 0 7.967 3.568 7.967 7.968s-3.566 7.966-7.967 7.966c-4.4 0-7.968-3.566-7.968-7.966zM21.173 16c0-2.856-2.316-5.172-5.172-5.172s-5.172 2.315-5.172 5.172c0 2.856 2.315 5.172 5.172 5.172s5.172-2.316 5.172-5.172zM22.422 7.718c0-1.028 0.834-1.861 1.862-1.861v-0.001c1.028 0 1.862 0.834 1.862 1.862s-0.834 1.862-1.862 1.862c-1.028 0-1.862-0.834-1.862-1.862z"></path>
</symbol>
<symbol id="map-pin" viewBox="0 0 32 32">
<path d="M16 2.333c-2.917 0-5.715 1.159-7.778 3.222s-3.222 4.861-3.222 7.778c0 4.265 2.766 8.354 5.726 11.479 1.46 1.541 2.923 2.801 4.022 3.676 0.51 0.406 0.94 0.728 1.252 0.955 0.313-0.227 0.742-0.549 1.252-0.955 1.099-0.875 2.562-2.135 4.022-3.676 2.96-3.125 5.726-7.214 5.726-11.479 0-2.917-1.159-5.715-3.222-7.778s-4.861-3.222-7.778-3.222zM16 30.667c-0.555 0.832-0.555 0.832-0.555 0.832l-0.003-0.002-0.038-0.025c-0.025-0.017-0.061-0.042-0.108-0.074-0.093-0.064-0.227-0.159-0.397-0.281-0.339-0.245-0.821-0.603-1.397-1.062-1.151-0.916-2.688-2.239-4.228-3.865-3.040-3.209-6.274-7.786-6.274-12.854 0-3.448 1.37-6.754 3.808-9.192s5.745-3.808 9.192-3.808c3.448 0 6.754 1.37 9.192 3.808s3.808 5.745 3.808 9.192c0 5.069-3.234 9.646-6.274 12.854-1.54 1.626-3.077 2.949-4.228 3.865-0.576 0.459-1.057 0.817-1.397 1.062-0.17 0.123-0.304 0.217-0.397 0.281-0.047 0.032-0.083 0.057-0.108 0.074l-0.038 0.025-0.003 0.002c0 0-0.001 0.001-0.556-0.831zM16 30.667l0.555 0.832c-0.336 0.224-0.774 0.224-1.11-0l0.555-0.832z"></path>
<path d="M16 10.333c-1.657 0-3 1.343-3 3s1.343 3 3 3 3-1.343 3-3c0-1.657-1.343-3-3-3zM11 13.333c0-2.761 2.239-5 5-5s5 2.239 5 5c0 2.761-2.239 5-5 5s-5-2.239-5-5z"></path>
</symbol>
<symbol id="menu" viewBox="0 0 53 32"><path d="M0 0h52.8v6.14h-52.8v-6.14z"></path><path d="M0 12.278h52.8v6.14h-52.8v-6.14z"></path><path d="M0 24.559h52.8v6.14h-52.8v-6.14z"></path></symbol>
<symbol id="smartphone" viewBox="0 0 32 32">
<path stroke-linejoin="round" stroke-linecap="round" stroke-miterlimit="4" stroke-width="2" d="M22.667 2.667h-13.333c-1.473 0-2.667 1.194-2.667 2.667v21.333c0 1.473 1.194 2.667 2.667 2.667h13.333c1.473 0 2.667-1.194 2.667-2.667v-21.333c0-1.473-1.194-2.667-2.667-2.667z"></path>
<path stroke-linejoin="round" stroke-linecap="round" stroke-miterlimit="4" stroke-width="2" d="M16 24h0.013"></path>
</symbol>
<symbol id="telegram" viewBox="0 0 37 32">
<path d="M14.608 20.326l0-0.001 15.619-14.095c0.685-0.608-0.15-0.905-1.060-0.353l-19.277 12.161-8.326-2.599c-1.798-0.551-1.811-1.786 0.404-2.675l32.446-12.511c1.482-0.673 2.912 0.356 2.346 2.624l-5.526 26.039c-0.386 1.85-1.504 2.293-3.053 1.438l-8.417-6.219-4.046 3.934c-0.013 0.012-0.025 0.025-0.038 0.037-0.453 0.44-0.827 0.805-1.646 0.805l0.573-8.586z"></path>
</symbol>
<symbol id="armchair" viewBox="0 0 100 100">
<path d="M75.8968 52.6612H24.1031C21.6154 52.6583 19.5994 50.6424 19.5967 48.1547V15.6307C19.5996 13.143 21.6154 11.127 24.1031 11.1243H75.8968C78.3844 11.1271 80.4005 13.143 80.4032 15.6307V48.1547C80.4005 50.6424 78.3846 52.6585 75.8968 52.6612ZM24.1031 13.468C22.9092 13.4694 21.9418 14.4369 21.9404 15.6307V48.1547C21.9418 49.3487 22.9094 50.3161 24.1031 50.3174H75.8968C77.0907 50.3161 78.0581 49.3485 78.0594 48.1547V15.6307C78.0581 14.4368 77.0905 13.4694 75.8968 13.468H24.1031Z"/>
<path d="M75.8968 81.8929H24.1031C21.6154 81.89 19.5994 79.8741 19.5967 77.3864V54.8241C19.5996 52.3364 21.6154 50.3203 24.1031 50.3176H75.8968C78.3844 50.3205 80.4005 52.3364 80.4032 54.8241V77.3864C80.4005 79.8741 78.3846 81.89 75.8968 81.8929ZM24.1031 52.6612C22.9092 52.6626 21.9418 53.6301 21.9404 54.8239V77.3863C21.9418 78.5802 22.9094 79.5476 24.1031 79.5489H75.8968C77.0907 79.5476 78.0581 78.58 78.0594 77.3863V54.8241C78.0581 53.6301 77.0905 52.6627 75.8968 52.6614H24.1031V52.6612Z"/>
<path d="M95.4936 81.8928H82.5662C80.0785 81.8899 78.0625 79.874 78.0598 77.3864V37.8441C78.0626 35.3564 80.0785 33.3403 82.5662 33.3376H95.4936C97.9812 33.3405 99.9973 35.3564 100 37.8441V77.3862C99.9971 79.874 97.9812 81.8899 95.4936 81.8928ZM82.566 35.6814C81.3721 35.6828 80.4047 36.6503 80.4033 37.8441V77.3862C80.4047 78.5801 81.3723 79.5475 82.566 79.5489H95.4934C96.6873 79.5475 97.6547 78.5799 97.6561 77.3862V37.8441C97.6547 36.6502 96.6871 35.6828 95.4934 35.6814H82.566Z"/>
<path d="M17.434 81.8928H4.5066C2.01875 81.8899 0.00287163 79.874 0 77.3862V37.8441C0.00287163 35.3564 2.01875 33.3403 4.50643 33.3376H17.4338C19.9215 33.3405 21.9375 35.3564 21.9402 37.8441V77.3862C21.9375 79.874 19.9217 81.8899 17.434 81.8928ZM4.50643 35.6814C3.31251 35.6828 2.34511 36.6503 2.34375 37.8441V77.3862C2.34511 78.5801 3.31267 79.5475 4.50643 79.5489H17.4338C18.6277 79.5475 19.5951 78.5799 19.5965 77.3862V37.8441C19.5951 36.6502 18.6276 35.6828 17.4338 35.6814H4.50643Z"/>
<path d="M79.2314 67.2771H20.7685C20.1213 67.2771 19.5967 66.7524 19.5967 66.1053C19.5967 65.4582 20.1213 64.9333 20.7685 64.9333H79.2314C79.8785 64.9333 80.4034 65.458 80.4034 66.1053C80.4034 66.7526 79.8787 67.2771 79.2314 67.2771Z"/>
<path d="M10.9701 88.8759C9.02871 88.8782 7.33597 87.5558 6.86857 85.6715L5.70472 81.0042C5.54796 80.3764 5.93006 79.7404 6.55776 79.5836C6.65067 79.5605 6.74594 79.5487 6.84154 79.5488H15.0987C15.7458 79.5488 16.2704 80.0733 16.2704 80.7205C16.2704 80.8161 16.2588 80.9115 16.2357 81.0042L15.0716 85.6715C14.6042 87.556 12.9115 88.8782 10.9701 88.8759ZM8.34155 81.8928L9.14256 85.1044C9.39425 86.1137 10.4166 86.7279 11.4258 86.4762C12.1015 86.3076 12.6291 85.7801 12.7976 85.1044L13.5987 81.8928H8.34155Z"/>
<path d="M89.0298 88.876C87.0883 88.8783 85.3955 87.5559 84.9281 85.6716L83.7643 81.0045C83.6075 80.3766 83.9896 79.7406 84.6173 79.5839C84.7102 79.5607 84.8055 79.5489 84.9011 79.5491H93.1582C93.8053 79.5491 94.33 80.0736 94.33 80.7207C94.33 80.8163 94.3184 80.9118 94.2952 81.0045L93.1314 85.6716C92.664 87.5559 90.9712 88.8783 89.0298 88.876ZM86.4013 81.8928L87.2021 85.1043C87.4538 86.1136 88.4761 86.728 89.4854 86.4763C90.1613 86.3077 90.6888 85.7802 90.8574 85.1043L91.6582 81.8927L86.4013 81.8928Z"/>
</symbol>
<symbol id="bedroom" viewBox="0 0 100 100">
<path d="M84.6851 33.7601H15.3149C14.6678 33.7601 14.1431 33.2354 14.1431 32.5883V8.24723C14.1431 7.6001 14.6678 7.07544 15.3149 7.07544H84.6851C85.3323 7.07544 85.8571 7.6001 85.8571 8.24723V32.5883C85.8569 33.2354 85.3323 33.7601 84.6851 33.7601ZM16.4867 31.4164H83.5132V9.41902H16.4867V31.4164Z"/>
<path d="M79.3066 33.7601H20.693C20.0459 33.7601 19.5212 33.2354 19.5212 32.5883V13.6254C19.5212 12.9783 20.0459 12.4536 20.693 12.4536H79.3066C79.9538 12.4536 80.4786 12.9783 80.4786 13.6254V32.5881C80.4786 33.2354 79.9539 33.7601 79.3066 33.7601ZM21.865 31.4163H78.1349V14.7974H21.865V31.4163Z"/>
<path d="M46.4656 33.76H24.2274C21.6295 33.7571 19.5242 31.6517 19.5212 29.0539V17.1596C19.5241 14.5616 21.6295 12.4564 24.2274 12.4534H46.4656C49.0636 12.4562 51.1689 14.5616 51.1719 17.1596V29.0539C51.1689 31.6519 49.0636 33.7571 46.4656 33.76ZM24.2274 14.7973C22.9234 14.7988 21.8665 15.8556 21.8649 17.1598V29.0541C21.8665 30.3581 22.9232 31.415 24.2274 31.4164H46.4656C47.7697 31.415 48.8266 30.3581 48.8281 29.0541V17.1598C48.8266 15.8557 47.7699 14.7988 46.4656 14.7973H24.2274Z"/>
<path d="M75.7723 33.76H53.5341C50.9361 33.7571 48.8309 31.6517 48.8278 29.0539V17.1596C48.8307 14.5616 50.9361 12.4564 53.5341 12.4534H75.7723C78.3703 12.4562 80.4755 14.5616 80.4785 17.1596V29.0539C80.4755 31.6519 78.3703 33.7571 75.7723 33.76ZM53.5341 14.7973C52.23 14.7988 51.1731 15.8556 51.1716 17.1598V29.0541C51.1731 30.3581 52.2299 31.415 53.5341 31.4164H75.7723C77.0763 31.415 78.1333 30.3581 78.1348 29.0541V17.1598C78.1333 15.8557 77.0765 14.7988 75.7723 14.7973H53.5341Z"/>
<path d="M85.5331 92.9248H14.4667C11.8689 92.9218 9.76366 90.8167 9.76062 88.2187V36.1223C9.76366 33.5245 11.8689 31.4193 14.4667 31.4163H85.5331C88.131 31.4191 90.2363 33.5244 90.2393 36.1223V88.2187C90.2363 90.8165 88.131 92.9218 85.5331 92.9248ZM14.4667 33.76C13.1627 33.7614 12.1057 34.8183 12.1042 36.1223V88.2187C12.1057 89.5228 13.1625 90.5795 14.4667 90.5811H85.5331C86.8371 90.5795 87.8939 89.5228 87.8954 88.2187V36.1223C87.8939 34.8183 86.8371 33.7614 85.5331 33.76H14.4667Z"/>
<path d="M85.9842 9.41893H14.0157C11.6667 9.41623 9.76332 7.51268 9.76062 5.16386V4.25507C9.76332 1.90625 11.6667 0.00270271 14.0157 0H85.9842C88.3332 0.00270271 90.2366 1.90625 90.2393 4.25507V5.16386C90.2366 7.51285 88.3331 9.41623 85.9842 9.41893ZM14.0157 2.34375C12.9606 2.34494 12.1056 3.20001 12.1044 4.25507V5.16386C12.1056 6.21893 12.9606 7.074 14.0157 7.07518H85.9842C87.0393 7.074 87.8944 6.21893 87.8956 5.16386V4.25507C87.8944 3.20001 87.0393 2.34494 85.9842 2.34375H14.0157Z"/>
<path d="M85.9842 100H14.0157C11.6667 99.9973 9.76332 98.0937 9.76062 95.7449V94.8361C9.76332 92.4871 11.6669 90.5838 14.0157 90.5811H85.9842C88.3332 90.5838 90.2366 92.4873 90.2393 94.8361V95.7449C90.2366 98.0937 88.3331 99.9973 85.9842 100ZM14.0157 92.9248C12.9606 92.926 12.1056 93.7811 12.1044 94.8361V95.7449C12.1056 96.8 12.9606 97.655 14.0157 97.6562H85.9842C87.0393 97.655 87.8944 96.8 87.8956 95.7449V94.8361C87.8944 93.7811 87.0393 92.926 85.9842 92.9248H14.0157Z"/>
</symbol>
<symbol id="kitchen" viewBox="0 0 100 100">
<path d="M67.7878 91.1305H32.212C31.5648 91.1305 31.0402 90.6058 31.0402 89.9585V62.7137C31.0402 62.0666 31.5648 61.5417 32.212 61.5417H67.7878C68.435 61.5417 68.9598 62.0664 68.9598 62.7137V89.9585C68.9596 90.6058 68.435 91.1305 67.7878 91.1305ZM33.3839 88.7867H66.6161V63.8857H33.3839V88.7867Z"/>
<path d="M67.7878 96.1447H32.212C31.5648 96.1447 31.0402 95.62 31.0402 94.9727V89.9583C31.0402 89.3112 31.5648 88.7864 32.212 88.7864H67.7878C68.435 88.7864 68.9598 89.311 68.9598 89.9583V94.9727C68.9596 95.62 68.435 96.1447 67.7878 96.1447ZM33.3839 93.8009H66.6161V91.1303H33.3839V93.8009Z"/>
<path d="M67.7878 63.8856H32.212C31.5648 63.8856 31.0402 63.3609 31.0402 62.7138V51.1624C31.0402 50.5153 31.5648 49.9905 32.212 49.9905H67.7878C68.435 49.9905 68.9598 50.5151 68.9598 51.1624V62.7138C68.9596 63.3609 68.435 63.8856 67.7878 63.8856ZM33.3839 61.5419H66.6161V52.3342H33.3839V61.5419Z"/>
<path d="M49.9998 60.7356C47.9024 60.7356 46.202 59.0352 46.202 56.9379C46.202 54.8406 47.9024 53.1401 49.9997 53.1401C52.0971 53.1401 53.7975 54.8405 53.7975 56.9378C53.7953 59.0344 52.0963 60.7332 49.9998 60.7356ZM49.9998 55.4839C49.1968 55.4839 48.5458 56.1349 48.5458 56.9378C48.5458 57.7408 49.1968 58.3918 49.9997 58.3918C50.8027 58.3918 51.4537 57.7408 51.4537 56.9379C51.4531 56.1352 50.8025 55.4847 49.9998 55.4839Z"/>
<path d="M59.8668 60.7356C57.7693 60.7356 56.069 59.0352 56.069 56.9379C56.069 54.8405 57.7693 53.1401 59.8666 53.1401C61.9641 53.1401 63.6644 54.8405 63.6644 56.9378C63.6622 59.0344 61.9632 60.7332 59.8668 60.7356ZM59.8668 55.4839C59.0637 55.4839 58.4127 56.1349 58.4127 56.9378C58.4127 57.7408 59.0637 58.3918 59.8666 58.3918C60.6697 58.3918 61.3207 57.7408 61.3207 56.9379C61.3198 56.1352 60.6695 55.4849 59.8668 55.4839Z"/>
<path d="M40.133 60.7358C38.0355 60.7358 36.3352 59.0354 36.3352 56.9379C36.3352 54.8405 38.0355 53.1401 40.133 53.1401C42.2305 53.1401 43.9308 54.8405 43.9308 56.9379C43.9285 59.0346 42.2295 60.7334 40.133 60.7358ZM40.133 55.4841C39.33 55.4841 38.679 56.1351 38.679 56.9381C38.679 57.7412 39.33 58.3922 40.133 58.3922C40.9361 58.3922 41.5871 57.7412 41.5871 56.9381C41.5862 56.1354 40.9357 55.4849 40.133 55.4841Z"/>
<path d="M60.9086 70.7368H39.0915C37.5693 70.7362 36.3359 69.5019 36.3365 67.9798C36.3372 66.4585 37.5702 65.2254 39.0915 65.2249H60.9086C62.4307 65.2242 63.6651 66.4576 63.6656 67.9798C63.6663 69.5019 62.4329 70.7363 60.9107 70.7368C60.9099 70.7368 60.9092 70.7368 60.9086 70.7368ZM39.0915 67.5684C38.8637 67.5686 38.6793 67.7534 38.6795 67.9811C38.6796 68.2086 38.8639 68.3929 39.0915 68.3931H60.9086C61.1363 68.3933 61.3211 68.2088 61.3212 67.9811C61.3214 67.7534 61.1369 67.5686 60.9092 67.5684C60.9091 67.5684 60.9087 67.5684 60.9086 67.5684H39.0915Z"/>
<path d="M59.8668 87.389H40.133C39.4858 87.389 38.9612 86.8643 38.9612 86.217V69.5648C38.9612 68.9177 39.4858 68.3928 40.133 68.3928H59.8668C60.5139 68.3928 61.0386 68.9175 61.0386 69.5648V86.217C61.0388 86.8643 60.5141 87.389 59.8668 87.389ZM41.3049 85.0452H58.695V70.7367H41.3049V85.0452Z"/>
<path d="M42.1912 52.3341C41.5441 52.3341 41.0194 51.8095 41.0194 51.1622V48.2542C41.0194 47.6071 41.5441 47.0823 42.1912 47.0823C42.8383 47.0823 43.3632 47.6069 43.3632 48.2542V51.1622C43.3632 51.8095 42.8385 52.3341 42.1912 52.3341Z"/>
<path d="M47.7467 52.3342C47.0996 52.3342 46.5749 51.8096 46.5749 51.1623V49.426H45.0124C44.3653 49.426 43.8405 48.9013 43.8405 48.254C43.8405 47.6067 44.3651 47.082 45.0124 47.082H47.7467C48.3938 47.082 48.9187 47.6067 48.9187 48.254V51.1623C48.9185 51.8096 48.3938 52.3342 47.7467 52.3342Z"/>
<path d="M36.6356 52.3342C35.9885 52.3342 35.4636 51.8096 35.4636 51.1623V48.254C35.4636 47.6069 35.9883 47.082 36.6356 47.082H39.3699C40.017 47.082 40.5417 47.6067 40.5417 48.254C40.5417 48.9013 40.017 49.426 39.3699 49.426H37.8074V51.1623C37.8075 51.8096 37.2829 52.3342 36.6356 52.3342Z"/>
<path d="M57.8088 52.3341C57.1617 52.3341 56.6368 51.8095 56.6368 51.1622V48.2542C56.6368 47.6071 57.1615 47.0823 57.8088 47.0823C58.4561 47.0823 58.9806 47.6069 58.9806 48.2542V51.1622C58.9806 51.8095 58.4559 52.3341 57.8088 52.3341Z"/>
<path d="M52.2534 52.3342C51.6063 52.3342 51.0814 51.8096 51.0814 51.1623V48.254C51.0814 47.6069 51.6061 47.082 52.2534 47.082H54.9877C55.6348 47.082 56.1596 47.6067 56.1596 48.254C56.1596 48.9013 55.635 49.426 54.9877 49.426H53.4252V51.1623C53.4253 51.8096 52.9007 52.3342 52.2534 52.3342Z"/>
<path d="M63.3645 52.3342C62.7173 52.3342 62.1927 51.8096 62.1927 51.1623V49.426H60.6302C59.983 49.426 59.4584 48.9013 59.4584 48.254C59.4584 47.6067 59.983 47.082 60.6302 47.082H63.3645C64.0116 47.082 64.5364 47.6067 64.5364 48.254V51.1623C64.5362 51.8096 64.0116 52.3342 63.3645 52.3342Z"/>
<path d="M73.452 56.6021H71.3542C70.707 56.6021 70.1824 56.0774 70.1824 55.4303C70.1824 54.7831 70.707 54.2583 71.3542 54.2583H73.4521C74.0993 54.2583 74.6239 54.783 74.6239 55.4303C74.6239 56.0776 74.0993 56.6021 73.452 56.6021Z"/>
<path d="M77.0183 96.1448H67.788C67.1409 96.1448 66.6162 95.6201 66.6162 94.9728V51.1623C66.6162 50.5151 67.1409 49.9905 67.788 49.9905H77.0183C77.6654 49.9905 78.1902 50.5151 78.1902 51.1623V94.9728C78.1901 95.6201 77.6654 96.1448 77.0183 96.1448ZM68.9598 93.801H75.8463V52.3342H68.9598V93.801Z"/>
<path d="M98.828 74.2395H77.0182C76.3711 74.2395 75.8464 73.7148 75.8464 73.0677V51.1624C75.8464 50.5153 76.3711 49.9905 77.0182 49.9905H98.8282C99.4754 49.9905 100 50.5151 100 51.1624V73.0677C100 73.7148 99.4753 74.2395 98.828 74.2395ZM78.19 71.8958H97.6563V52.3342H78.19V71.8958Z"/>
<path d="M90.7335 56.6021H85.1127C84.4656 56.6021 83.9409 56.0774 83.9409 55.4303C83.9409 54.7831 84.4656 54.2583 85.1127 54.2583H90.7335C91.3806 54.2583 91.9055 54.783 91.9055 55.4303C91.9055 56.0776 91.3806 56.6021 90.7335 56.6021Z"/>
<path d="M19.5024 56.6021H13.8816C13.2345 56.6021 12.7098 56.0774 12.7098 55.4303C12.7098 54.7831 13.2345 54.2583 13.8816 54.2583H19.5022C20.1494 54.2583 20.674 54.783 20.674 55.4303C20.674 56.0776 20.1495 56.6021 19.5024 56.6021Z"/>
<path d="M98.828 96.1448H77.0182C76.3711 96.1448 75.8464 95.6201 75.8464 94.9728V73.0677C75.8464 72.4206 76.3711 71.8958 77.0182 71.8958H98.8282C99.4754 71.8958 100 72.4204 100 73.0677V94.9728C100 95.6201 99.4753 96.1448 98.828 96.1448ZM78.19 93.801H97.6563V74.2395H78.19V93.801Z"/>
<path d="M90.7335 78.5071H85.1127C84.4656 78.5071 83.9409 77.9824 83.9409 77.3351C83.9409 76.688 84.4656 76.1633 85.1127 76.1633H90.7335C91.3806 76.1633 91.9055 76.688 91.9055 77.3351C91.9053 77.9824 91.3806 78.5071 90.7335 78.5071Z"/>
<path d="M16.6919 96.1448H1.17179C0.524663 96.1448 0 95.6202 0 94.9729V62.7137C0 62.0666 0.524663 61.5417 1.17179 61.5417H16.6919C17.3391 61.5417 17.8637 62.0664 17.8637 62.7137V94.9729C17.8639 95.6202 17.3392 96.1448 16.6919 96.1448ZM2.34375 93.8011H15.5201V63.8857H2.34375V93.8011Z"/>
<path d="M32.2121 96.1448H16.6919C16.0448 96.1448 15.5201 95.6202 15.5201 94.9729V62.7137C15.5201 62.0666 16.0448 61.5417 16.6919 61.5417H32.2121C32.8592 61.5417 33.3839 62.0664 33.3839 62.7137V94.9729C33.384 95.6202 32.8594 96.1448 32.2121 96.1448ZM17.8639 93.8011H31.0403V63.8857H17.8639V93.8011Z"/>
<path d="M20.3975 81.9658C19.7504 81.9658 19.2257 81.4411 19.2257 80.794V76.893C19.2257 76.2459 19.7504 75.7212 20.3975 75.7212C21.0446 75.7212 21.5693 76.2459 21.5693 76.893V80.7942C21.5693 81.4411 21.0446 81.9658 20.3975 81.9658Z"/>
<path d="M12.9865 81.9658C12.3394 81.9658 11.8147 81.4411 11.8147 80.794V76.893C11.8147 76.2459 12.3394 75.7212 12.9865 75.7212C13.6336 75.7212 14.1583 76.2459 14.1583 76.893V80.7942C14.1583 81.4411 13.6336 81.9658 12.9865 81.9658Z"/>
<path d="M32.212 63.8856H1.17179C0.524663 63.8856 0 63.3609 0 62.7138V51.1624C0 50.5153 0.524663 49.9905 1.17179 49.9905H32.212C32.8592 49.9905 33.3838 50.5151 33.3838 51.1624V62.7138C33.384 63.3609 32.8593 63.8856 32.212 63.8856ZM2.34375 61.5419H31.0403V52.3342H2.34375V61.5419Z"/>
<path d="M66.4667 27.7771H33.5331C32.1569 27.7755 31.0417 26.6603 31.0402 25.2841V21.9188C31.0417 20.5426 32.1569 19.4275 33.5331 19.426H66.4669C67.8431 19.4275 68.9583 20.5428 68.9598 21.9189V25.2843C68.9583 26.6603 67.8429 27.7755 66.4667 27.7771ZM33.5331 21.7696C33.4508 21.7698 33.3841 21.8365 33.3839 21.9188V25.2841C33.3841 25.3664 33.4508 25.4331 33.5331 25.4333H66.4669C66.5492 25.4331 66.6159 25.3664 66.6161 25.2841V21.9188C66.6159 21.8365 66.5492 21.7698 66.4669 21.7696H33.5331Z"/>
<path d="M64.0241 21.7696H35.9759C34.6122 21.7696 33.5066 20.6642 33.5065 19.3005C33.5065 18.5409 33.856 17.8236 34.4543 17.3556L35.3548 16.651C38.9409 13.8627 41.0328 9.57008 41.0192 5.02751C41.0192 4.38038 41.5438 3.85571 42.1909 3.85571H57.8087C58.4558 3.85571 58.9805 4.38038 58.9805 5.02751C58.9668 9.57008 61.0587 13.8627 64.645 16.651L65.5454 17.3556C66.6195 18.1958 66.8092 19.7476 65.969 20.8216C65.5013 21.4201 64.7837 21.7698 64.0241 21.7696ZM43.3237 6.1993C43.006 11.0426 40.6311 15.5184 36.799 18.497L35.8984 19.2015C35.8438 19.2443 35.8342 19.3231 35.8769 19.3777C35.9007 19.4081 35.9372 19.4258 35.9757 19.4258H64.0241C64.0934 19.4258 64.1496 19.3696 64.1496 19.3003C64.1496 19.2618 64.1319 19.2253 64.1016 19.2017H64.1015L63.2011 18.4971C59.3689 15.5186 56.9942 11.0427 56.6764 6.19947H43.3237V6.1993Z"/>
<path d="M95.2003 27.7771H76.5516C74.9297 27.7771 73.6146 26.4622 73.6146 24.8401C73.6146 23.2179 74.9295 21.9031 76.5516 21.9031H95.2003C96.8223 21.9031 98.1373 23.2179 98.1373 24.8401C98.1373 26.4622 96.8223 27.7771 95.2003 27.7771ZM76.5516 24.247C76.2241 24.247 75.9584 24.5125 75.9584 24.8402C75.9584 25.1678 76.2239 25.4335 76.5516 25.4335H95.2003C95.5278 25.4335 95.7935 25.168 95.7935 24.8402C95.7935 24.5127 95.528 24.247 95.2003 24.247H76.5516Z"/>
<path d="M23.4483 27.7771H4.79967C3.17771 27.7771 1.86267 26.4622 1.86267 24.8401C1.86267 23.2179 3.17754 21.9031 4.79967 21.9031H23.4483C25.0703 21.9031 26.3853 23.2179 26.3853 24.8401C26.3853 26.4622 25.0705 27.7771 23.4483 27.7771ZM4.79967 24.247C4.47213 24.247 4.20642 24.5125 4.20642 24.8402C4.20642 25.1678 4.47197 25.4335 4.79967 25.4335H23.4483C23.7759 25.4335 24.0416 25.168 24.0416 24.8402C24.0416 24.5127 23.776 24.247 23.4483 24.247H4.79967Z"/>
<path d="M21.5774 24.247H16.8103C16.1632 24.247 15.6385 23.7223 15.6385 23.0752V19.0463C15.6385 18.3992 16.1632 17.8745 16.8103 17.8745H21.5774C22.2245 17.8745 22.7492 18.3992 22.7492 19.0463V23.0752C22.7494 23.7223 22.2247 24.247 21.5774 24.247ZM17.9823 21.9032H20.4056V20.2181H17.9823V21.9032Z"/>
<path d="M22.7005 20.2181H15.6873C15.0402 20.2181 14.5155 19.6934 14.5155 19.0463C14.5155 18.3992 15.0402 17.8745 15.6873 17.8745H22.7005C23.3476 17.8745 23.8723 18.3992 23.8723 19.0463C23.8723 19.6934 23.3476 20.2181 22.7005 20.2181Z"/>
<path d="M11.4375 24.247H6.67045C6.02332 24.247 5.49866 23.7223 5.49866 23.0752V19.0463C5.49866 18.3992 6.02332 17.8745 6.67045 17.8745H11.4375C12.0846 17.8745 12.6093 18.3992 12.6093 19.0463V23.0752C12.6093 23.7223 12.0846 24.247 11.4375 24.247ZM7.84224 21.9032H10.2656V20.2181H7.84241L7.84224 21.9032Z"/>
<path d="M12.5605 20.2181H5.54752C4.9004 20.2181 4.37573 19.6934 4.37573 19.0463C4.37573 18.3992 4.9004 17.8745 5.54752 17.8745H12.5607C13.2078 17.8745 13.7325 18.3992 13.7325 19.0463C13.7325 19.6934 13.2078 20.2181 12.5605 20.2181Z"/>
<path d="M21.5774 20.218H16.8103C16.1632 20.218 15.6385 19.6933 15.6385 19.0462V15.0175C15.6385 14.3704 16.1632 13.8457 16.8103 13.8457H21.5774C22.2245 13.8457 22.7492 14.3704 22.7492 15.0175V19.0462C22.7494 19.6933 22.2247 20.218 21.5774 20.218ZM17.9823 17.8743H20.4056V16.1893H17.9823V17.8743Z"/>
<path d="M22.7005 16.1893H15.6873C15.0402 16.1893 14.5155 15.6646 14.5155 15.0175C14.5155 14.3704 15.0402 13.8457 15.6873 13.8457H22.7005C23.3476 13.8457 23.8723 14.3704 23.8723 15.0175C23.8723 15.6646 23.3476 16.1893 22.7005 16.1893Z"/>
<path d="M11.4375 20.218H6.67045C6.02332 20.218 5.49866 19.6933 5.49866 19.0462V15.0175C5.49866 14.3704 6.02332 13.8457 6.67045 13.8457H11.4375C12.0846 13.8457 12.6093 14.3704 12.6093 15.0175V19.0462C12.6093 19.6933 12.0846 20.218 11.4375 20.218ZM7.84224 17.8743H10.2656V16.1893H7.84241L7.84224 17.8743Z"/>
<path d="M12.5605 16.1893H5.54752C4.9004 16.1893 4.37573 15.6646 4.37573 15.0175C4.37573 14.3704 4.9004 13.8457 5.54752 13.8457H12.5607C13.2078 13.8457 13.7325 14.3704 13.7325 15.0175C13.7325 15.6646 13.2078 16.1893 12.5605 16.1893Z"/>
<path d="M85.876 24.247C81.6985 24.2463 78.3123 20.8591 78.313 16.6816C78.3132 15.2588 78.7147 13.8647 79.4714 12.6598C79.686 12.3191 80.0605 12.1123 80.4632 12.1123H91.2887C91.6912 12.1123 92.0655 12.3189 92.2801 12.6596C94.502 16.1971 93.4355 20.8662 89.898 23.0882C88.6931 23.8451 87.299 24.2466 85.876 24.247ZM81.1547 14.4561C79.9263 17.0637 81.0444 20.1733 83.652 21.4017C86.2596 22.6301 89.3692 21.512 90.5976 18.9044C91.2611 17.4959 91.2611 15.8647 90.5976 14.4562H81.1547V14.4561Z"/>
<path d="M85.7668 14.4561C85.1197 14.4561 84.5948 13.9315 84.5948 13.2843V5.74479C84.5948 5.09766 85.1195 4.573 85.7668 4.573C86.4141 4.573 86.9386 5.09766 86.9386 5.74479V13.2843C86.9386 13.9315 86.4139 14.4561 85.7668 14.4561Z"/>
<path d="M85.7669 14.4562C85.1198 14.4562 84.5951 13.9313 84.5951 13.2842C84.5951 12.9734 84.7186 12.6754 84.9383 12.4556L88.9934 8.40057C89.4556 7.94753 90.1976 7.95513 90.6507 8.4173C91.0973 8.87304 91.0973 9.60227 90.6505 10.0578L86.5954 14.1129C86.3758 14.333 86.0777 14.4567 85.7669 14.4562Z"/>
<path d="M85.7669 14.456C85.4561 14.4564 85.1578 14.3329 84.9383 14.1128L80.8832 10.0577C80.4207 9.60502 80.4128 8.86296 80.8657 8.40046C81.3184 7.93795 82.0604 7.93002 82.5229 8.38289C82.5289 8.38863 82.5346 8.39454 82.5405 8.40046L86.5956 12.4555C87.0532 12.9131 87.0532 13.6552 86.5956 14.1128C86.3757 14.3326 86.0775 14.456 85.7669 14.456Z"/>
<path d="M60.8572 49.4261H55.1421C51.9016 49.4224 49.2756 46.7964 49.2719 43.5558V40.8011C49.2719 40.154 49.7965 39.6292 50.4438 39.6292H65.5555C66.2026 39.6292 66.7275 40.1538 66.7275 40.8011V43.5558C66.7237 46.7964 64.0977 49.4224 60.8572 49.4261ZM51.6158 41.9731V43.556C51.618 45.5028 53.1955 47.0803 55.1423 47.0825H60.8573C62.8041 47.0803 64.3817 45.5028 64.3839 43.556V41.9731H51.6158Z"/>
<path d="M67.7879 44.0384H65.5555C64.9084 44.0384 64.3835 43.5137 64.3835 42.8666C64.3835 42.2195 64.9082 41.6948 65.5555 41.6948H67.7879C68.4351 41.6948 68.9599 42.2195 68.9599 42.8666C68.9599 43.5137 68.4351 44.0384 67.7879 44.0384Z"/>
<path d="M50.0623 44.0384H47.8299C47.1827 44.0384 46.6581 43.5137 46.6581 42.8666C46.6581 42.2195 47.1827 41.6948 47.8299 41.6948H50.0623C50.7094 41.6948 51.2343 42.2195 51.2343 42.8666C51.2343 43.5137 50.7096 44.0384 50.0623 44.0384Z"/>
<path d="M65.5555 41.973H50.4438C49.7967 41.973 49.2719 41.4483 49.2719 40.8012C49.2719 40.5642 49.3436 40.3328 49.4779 40.1373C51.1175 37.7517 54.3827 36.2698 57.9996 36.2698C61.6165 36.2698 64.8815 37.7517 66.5212 40.1373C66.8877 40.6706 66.7526 41.4004 66.2193 41.7669C66.0241 41.901 65.7926 41.973 65.5555 41.973ZM53.5906 39.6292H62.4087C59.6252 38.2747 56.3739 38.2747 53.5906 39.6292Z"/>
<path d="M56.5687 38.7025C56.2817 38.7028 56.0045 38.5974 55.7903 38.4062C54.4156 37.1858 54.2906 35.0819 55.5111 33.7071C56.7315 32.3324 58.8354 32.2074 60.2102 33.4278C61.5849 34.6483 61.7099 36.7522 60.4895 38.127C60.4021 38.2255 60.3089 38.3185 60.2104 38.406C59.7297 38.8393 58.9886 38.8008 58.5553 38.3201C58.1221 37.8393 58.1606 37.0983 58.6413 36.665C58.645 36.6616 58.6488 36.6582 58.6525 36.655C59.0602 36.2947 59.0986 35.6723 58.7384 35.2647C58.3781 34.8571 57.7557 34.8185 57.3481 35.1787C56.9405 35.539 56.902 36.1615 57.2621 36.5691C57.289 36.5995 57.3175 36.628 57.3479 36.6549C57.8315 37.0849 57.8749 37.8256 57.4449 38.3093C57.2222 38.5596 56.9035 38.7025 56.5687 38.7025Z"/>
<path d="M13.9029 52.3343H8.95304C8.30591 52.3343 7.78125 51.8097 7.78125 51.1624V38.5754C7.78125 37.9282 8.30591 37.4036 8.95304 37.4036H13.9029C14.55 37.4036 15.0747 37.9282 15.0747 38.5754V51.1624C15.0748 51.8097 14.5502 52.3343 13.9029 52.3343ZM10.125 49.9906H12.7311V39.7473H10.125V49.9906Z"/>
<path d="M8.95301 52.3343H4.00334C3.35621 52.3343 2.83154 51.8097 2.83154 51.1624V38.5754C2.83154 37.9282 3.35621 37.4036 4.00334 37.4036H8.95301C9.60014 37.4036 10.1248 37.9282 10.1248 38.5754V51.1624C10.125 51.8097 9.6003 52.3343 8.95301 52.3343ZM5.17513 49.9906H7.78104V39.7473H5.1753L5.17513 49.9906Z"/>
<path d="M24.7744 52.3342H22.5644C20.3282 52.3317 18.5163 50.5195 18.5135 48.2834V44.1744C18.5135 43.5273 19.0382 43.0024 19.6853 43.0024H27.6533C28.3004 43.0024 28.8251 43.5271 28.8251 44.1744V48.2834C28.8227 50.5195 27.0105 52.3317 24.7744 52.3342ZM20.8575 45.3462V48.2834C20.8585 49.2258 21.6222 49.9893 22.5646 49.9905H24.7744C25.7168 49.9894 26.4805 49.2258 26.4815 48.2834V45.3464H20.8575V45.3462Z"/>
<path d="M28.3387 45.346H19C17.7781 45.3447 16.7879 44.3545 16.7865 43.1325V41.9171C16.7879 40.6952 17.7782 39.705 19 39.7036H28.3387C29.5607 39.705 30.5509 40.6952 30.5522 41.9171V43.1325C30.5509 44.3545 29.5607 45.3447 28.3387 45.346ZM19.1303 43.0023H28.2086V42.0474H19.1303V43.0023Z"/>
<path d="M77.9696 52.3342H71.9363C71.2892 52.3342 70.7645 51.8096 70.7645 51.1623V42.9156C70.7645 42.2685 71.2892 41.7437 71.9363 41.7437H77.9696C78.6167 41.7437 79.1416 42.2683 79.1416 42.9156V51.1623C79.1414 51.8096 78.6167 52.3342 77.9696 52.3342ZM73.1083 49.9905H76.7978V44.0876H73.1083V49.9905Z"/>
<path d="M77.9696 44.0875H71.9363C71.2892 44.0875 70.7645 43.5628 70.7645 42.9157V39.3133C70.7645 38.6662 71.2892 38.1414 71.9363 38.1414H77.9696C78.6167 38.1414 79.1416 38.666 79.1416 39.3133V42.9157C79.1414 43.5628 78.6167 44.0875 77.9696 44.0875ZM73.1083 41.7437H76.7978V40.4851H73.1083V41.7437Z"/>
<path d="M92.4371 48.3708C90.5225 48.3708 89.0227 46.5278 89.0227 44.1749C89.0227 41.822 90.5224 39.9788 92.4371 39.9788C94.3516 39.9788 95.8514 41.822 95.8514 44.1749C95.8514 46.5278 94.3516 48.3708 92.4371 48.3708ZM92.4371 42.3225C91.9317 42.3225 91.3665 43.1146 91.3665 44.1749C91.3665 45.235 91.9317 46.0271 92.4371 46.0271C92.9425 46.0271 93.5077 45.235 93.5077 44.1749C93.5077 43.1147 92.9425 42.3225 92.4371 42.3225Z"/>
<path d="M92.4369 42.3002C91.8906 42.3002 91.4166 41.9226 91.2946 41.39L89.5036 33.5765C89.1323 31.9564 90.1445 30.342 91.7646 29.9706C93.3847 29.5991 94.999 30.6115 95.3705 32.2316C95.472 32.6741 95.472 33.1339 95.3705 33.5765L93.5793 41.39C93.457 41.9226 92.9832 42.3002 92.4369 42.3002ZM92.4369 32.2385C92.0693 32.2385 91.7712 32.5365 91.7712 32.9042C91.7712 32.9542 91.7767 33.0042 91.7881 33.053L92.4369 35.8838L93.0859 33.0532C93.1681 32.6949 92.9441 32.3376 92.5859 32.2555C92.537 32.2441 92.487 32.2385 92.4369 32.2385Z"/>
<path d="M84.0078 42.3002C83.4615 42.3002 82.9875 41.9227 82.8656 41.3903L81.0743 33.5767C80.7029 31.9566 81.7152 30.3421 83.3353 29.9708C84.9554 29.5994 86.57 30.6117 86.9412 32.2318C87.0428 32.6744 87.0428 33.1342 86.9412 33.5767L85.15 41.3903C85.0281 41.9229 84.5541 42.3002 84.0078 42.3002ZM84.0078 32.2386C83.6401 32.2386 83.3421 32.5365 83.3421 32.9043C83.3421 32.9544 83.3477 33.0043 83.359 33.0533L84.0078 35.884L84.6566 33.0533C84.7389 32.6948 84.5149 32.3377 84.1566 32.2556C84.1078 32.2441 84.058 32.2386 84.0078 32.2386Z"/>
<path d="M86.7007 46.0877H81.315C80.7321 46.0877 80.2378 45.6592 80.1551 45.0822C79.9527 43.7295 80.348 42.3556 81.238 41.3171C81.9951 40.4436 83.0046 39.9426 84.0078 39.9426C85.011 39.9426 86.0208 40.4436 86.778 41.3171C87.6679 42.3556 88.063 43.7296 87.8606 45.0822C87.7779 45.6594 87.2836 46.0877 86.7007 46.0877ZM82.5355 43.744H85.4804C85.3914 43.4151 85.2296 43.1104 85.0069 42.8523C84.7089 42.5085 84.3169 42.2864 84.0078 42.2864C83.6986 42.2864 83.3067 42.5085 83.0089 42.8523C82.7865 43.1102 82.6245 43.4151 82.5355 43.744Z"/>
</symbol>
<symbol id="living-room" viewBox="0 0 100 100">
<path d="M46.6655 87.1791H16.7647C14.2771 87.1763 12.261 85.1604 12.2583 82.6727V71.057C12.2612 68.5693 14.2771 66.5532 16.7647 66.5505H46.6655C49.1531 66.5534 51.1692 68.5693 51.1719 71.057V82.6727C51.169 85.1604 49.1531 87.1764 46.6655 87.1791ZM16.7647 68.8941C15.5708 68.8955 14.6032 69.863 14.6021 71.0568V82.6725C14.6034 83.8665 15.571 84.834 16.7647 84.8352H46.6655C47.8594 84.8338 48.8268 83.8663 48.8281 82.6725V71.0568C48.8268 69.8629 47.8592 68.8955 46.6655 68.8941H16.7647Z"/>
<path d="M10.0955 87.1791H4.50643C2.01875 87.1764 0.00287163 85.1603 0 82.6726V60.4356C0.00287163 57.948 2.01875 55.9319 4.50643 55.9292H10.0953C12.583 55.9321 14.599 57.948 14.6017 60.4356V82.6726C14.599 85.1603 12.5831 87.1764 10.0955 87.1791ZM4.50643 58.273C3.31251 58.2743 2.34511 59.2417 2.34375 60.4356V82.6726C2.34511 83.8666 3.31267 84.834 4.50643 84.8353H10.0953C11.2892 84.834 12.2566 83.8664 12.258 82.6726V60.4356C12.2566 59.2417 11.2892 58.2741 10.0953 58.273H4.50643Z"/>
<path d="M86.5699 78.0366H13.4301C12.783 78.0366 12.2583 77.512 12.2583 76.8648C12.2583 76.2177 12.783 75.6929 13.4301 75.6929H86.5701C87.2172 75.6929 87.7419 76.2175 87.7419 76.8648C87.7419 77.5121 87.2172 78.0366 86.5699 78.0366Z"/>
<path d="M46.6655 68.894H16.7647C14.2771 68.8911 12.261 66.8753 12.2583 64.3876V46.5406C12.2612 44.0529 14.2771 42.0369 16.7647 42.0342H46.6655C49.1531 42.0371 51.1692 44.0529 51.1719 46.5406V64.3876C51.169 66.8753 49.1531 68.8913 46.6655 68.894ZM16.7647 44.3778C15.5708 44.3791 14.6032 45.3465 14.6021 46.5404V64.3874C14.6034 65.5813 15.571 66.5489 16.7647 66.5501H46.6655C47.8594 66.5487 48.8268 65.5812 48.8281 64.3874V46.5406C48.8268 45.3467 47.8592 44.3791 46.6655 44.3779L16.7647 44.3778Z"/>
<path d="M83.2353 68.894H53.3345C50.8469 68.8911 48.8308 66.8753 48.8281 64.3876V46.5406C48.831 44.0529 50.8469 42.0369 53.3345 42.0342H83.2353C85.723 42.0371 87.739 44.0529 87.7417 46.5406V64.3876C87.739 66.8753 85.7231 68.8913 83.2353 68.894ZM53.3345 44.3778C52.1406 44.3791 51.1731 45.3467 51.1719 46.5404V64.3874C51.1732 65.5813 52.1408 66.5487 53.3345 66.5501H83.2353C84.4292 66.5487 85.3968 65.5812 85.398 64.3874V46.5406C85.3966 45.3467 84.429 44.3791 83.2353 44.3779L53.3345 44.3778Z"/>
<path d="M83.2353 87.1791H53.3345C50.8469 87.1763 48.8308 85.1604 48.8281 82.6727V71.057C48.831 68.5693 50.8469 66.5532 53.3345 66.5505H83.2353C85.723 66.5534 87.739 68.5693 87.7417 71.057V82.6727C87.739 85.1604 85.7231 87.1764 83.2353 87.1791ZM53.3345 68.8941C52.1406 68.8955 51.1732 69.863 51.1719 71.0568V82.6725C51.1732 83.8665 52.1408 84.8338 53.3345 84.8352H83.2353C84.4292 84.8338 85.3968 83.8663 85.398 82.6725V71.0568C85.3966 69.8629 84.429 68.8953 83.2353 68.8941H53.3345Z"/>
<path d="M95.4935 87.1791H89.9047C87.417 87.1762 85.401 85.1603 85.3983 82.6726V60.4356C85.4011 57.948 87.417 55.9319 89.9047 55.9292H95.4935C97.9812 55.9321 99.9973 57.948 100 60.4356V82.6726C99.9971 85.1603 97.9812 87.1764 95.4935 87.1791ZM89.9045 58.273C88.7106 58.2743 87.7432 59.2417 87.7418 60.4356V82.6726C87.7432 83.8666 88.7108 84.834 89.9045 84.8353H95.4934C96.6873 84.834 97.6549 83.8664 97.656 82.6725V60.4356C97.6547 59.2417 96.6873 58.2741 95.4934 58.273H89.9045Z"/>
<path d="M52.7396 68.8941H47.2604C46.6133 68.8941 46.0886 68.3694 46.0886 67.7223C46.0886 67.0751 46.6133 66.5503 47.2604 66.5503H52.7396C53.3867 66.5503 53.9116 67.075 53.9116 67.7223C53.9116 68.3696 53.3867 68.8941 52.7396 68.8941Z"/>
<path d="M71.4504 38.6387H28.5495C27.9024 38.6387 27.3777 38.1141 27.3777 37.4668V9.62467C27.3777 8.97754 27.9024 8.45288 28.5495 8.45288H71.4504C72.0976 8.45288 72.6222 8.97754 72.6222 9.62467V37.4668C72.6222 38.1139 72.0976 38.6387 71.4504 38.6387ZM29.7215 36.295H70.2787V10.7965H29.7215V36.295Z"/>
<path d="M67.5469 34.735H32.4531C31.8059 34.735 31.2813 34.2104 31.2813 33.5631V13.5282C31.2813 12.8811 31.8059 12.3564 32.4531 12.3564H67.5469C68.1942 12.3564 68.7188 12.8811 68.7188 13.5282V33.5631C68.7187 34.2104 68.194 34.735 67.5469 34.735ZM33.625 32.3913H66.3751V14.7002H33.625V32.3913Z"/>
<path d="M36.6535 30.4398C36.0063 30.4398 35.4815 29.9152 35.4815 29.268C35.4815 28.9572 35.605 28.6591 35.8247 28.4393L41.8511 22.4128C42.3087 21.9552 43.0508 21.9552 43.5084 22.4128L47.1655 26.0697C47.6231 26.5273 47.6231 27.2694 47.1655 27.727C46.7079 28.1846 45.9658 28.1846 45.5082 27.727L42.6798 24.8988L37.482 30.0966C37.2626 30.3167 36.9643 30.4402 36.6535 30.4398Z"/>
<path d="M63.3461 30.3798C63.0352 30.3802 62.7369 30.2567 62.5175 30.0366C61.0915 28.6106 59.6655 27.1839 58.2395 25.7565C56.6337 24.1528 55.0292 22.5482 53.4259 20.9428L52.6742 20.1916C52.4374 19.955 52.2006 19.7183 51.9638 19.4817L45.4418 26.0036C44.9842 26.4612 44.2421 26.4612 43.7845 26.0036C43.3269 25.546 43.3269 24.804 43.7845 24.3464L51.1356 16.9953C51.3553 16.7756 51.6535 16.6521 51.9643 16.6521H51.9651C52.2763 16.6523 52.5744 16.7763 52.7942 16.9965C53.3057 17.5094 53.8178 18.0219 54.331 18.5339L55.0839 19.2862C56.6866 20.891 58.291 22.4954 59.8971 24.0994C61.3217 25.5261 62.7477 26.9528 64.1751 28.3795C64.6327 28.8371 64.6327 29.5791 64.1751 30.0368C63.9548 30.2563 63.6569 30.3798 63.3461 30.3798Z"/>
<path d="M59.0688 26.1003C58.7582 26.1003 58.4602 25.9771 58.2405 25.7575C56.6334 24.1526 55.0285 22.5477 53.4256 20.9427C53.092 20.6087 52.9913 20.107 53.1704 19.6702C54.1886 17.1856 57.0281 15.9969 59.5128 17.015C61.9974 18.0332 63.1861 20.8727 62.168 23.3574C61.6742 24.5623 60.7177 25.5189 59.5128 26.0126C59.372 26.0706 59.2212 26.1003 59.0688 26.1003ZM55.7176 19.921C56.8981 21.1026 58.0796 22.2841 59.2624 23.4658C60.3398 22.5854 60.4994 20.9984 59.619 19.921C58.7386 18.8437 57.1516 18.6841 56.0742 19.5645C55.9438 19.671 55.8242 19.7905 55.7176 19.921Z"/>
<path d="M92.699 91.547C91.2829 91.5487 90.0485 90.5844 89.7074 89.21L88.9794 86.2906C88.8228 85.6626 89.2049 85.0266 89.8329 84.87C89.9257 84.8469 90.0209 84.8352 90.1165 84.8352H95.2814C95.9285 84.8352 96.4534 85.3599 96.4534 86.007C96.4534 86.1026 96.4417 86.1979 96.4186 86.2906L95.6905 89.21C95.3495 90.5844 94.115 91.5489 92.699 91.547ZM91.6165 87.179L91.9816 88.6428C92.0804 89.0389 92.4816 89.2801 92.8779 89.1813C93.1431 89.1151 93.3502 88.908 93.4164 88.6428L93.7814 87.1788L91.6165 87.179Z"/>
<path d="M7.30102 91.547C5.88497 91.5487 4.65051 90.5844 4.30946 89.21L3.58142 86.2906C3.42483 85.6626 3.80693 85.0266 4.43497 84.87C4.52771 84.8469 4.62298 84.8352 4.71859 84.8352H9.88346C10.5306 84.8352 11.0554 85.3599 11.0554 86.007C11.0554 86.1026 11.0438 86.1979 11.0206 86.2906L10.2926 89.21C9.95136 90.5844 8.7169 91.5489 7.30102 91.547ZM6.21859 87.179L6.58362 88.6428C6.68244 89.0389 7.08362 89.2801 7.47991 89.1813C7.74511 89.1151 7.95221 88.908 8.01842 88.6428L8.38346 87.1788L6.21859 87.179Z"/>
</symbol>
<symbol id="wardrobe1" viewBox="0 0 100 100">
<path d="M93.5451 42.0745H6.45487C5.80774 42.0745 5.28308 41.5499 5.28308 40.9028V15.4306C5.28308 14.7835 5.80774 14.2588 6.45487 14.2588H93.5451C94.1922 14.2588 94.717 14.7835 94.717 15.4306V40.9026C94.7168 41.5499 94.1922 42.0745 93.5451 42.0745ZM7.62684 39.7308H92.3733V16.6025H7.62684V39.7308Z"/>
<path d="M93.5451 67.5466H6.45487C5.80774 67.5466 5.28308 67.022 5.28308 66.3747V40.9027C5.28308 40.2555 5.80774 39.7307 6.45487 39.7307H93.5451C94.1922 39.7307 94.717 40.2554 94.717 40.9027V66.3747C94.7168 67.022 94.1922 67.5466 93.5451 67.5466ZM7.62684 65.2029H92.3733V42.0746H7.62684V65.2029Z"/>
<path d="M93.5451 93.0186H6.45487C5.80774 93.0186 5.28308 92.494 5.28308 91.8467V66.3748C5.28308 65.7277 5.80774 65.2029 6.45487 65.2029H93.5451C94.1922 65.2029 94.717 65.7275 94.717 66.3748V91.8468C94.7168 92.494 94.1922 93.0186 93.5451 93.0186ZM7.62684 90.6749H92.3733V67.5466H7.62684V90.6749Z"/>
<path d="M52.1919 29.3386H47.8081C47.1609 29.3386 46.6361 28.814 46.6361 28.1668C46.6361 27.5197 47.1608 26.9949 47.8081 26.9949H52.1919C52.839 26.9949 53.3638 27.5195 53.3638 28.1668C53.3638 28.8141 52.839 29.3386 52.1919 29.3386Z"/>
<path d="M52.1919 54.8107H47.8081C47.1609 54.8107 46.6361 54.2861 46.6361 53.6388C46.6361 52.9915 47.1608 52.4668 47.8081 52.4668H52.1919C52.839 52.4668 53.3638 52.9915 53.3638 53.6388C53.3638 54.2861 52.839 54.8107 52.1919 54.8107Z"/>
<path d="M52.1919 80.2827H47.8081C47.1609 80.2827 46.6361 79.7581 46.6361 79.1108C46.6361 78.4635 47.1608 77.939 47.8081 77.939H52.1919C52.839 77.939 53.3638 78.4636 53.3638 79.1108C53.3638 79.7579 52.839 80.2827 52.1919 80.2827Z"/>
<path d="M96.875 16.6027H3.12501C1.4 16.6006 0.00202703 15.2027 0 13.4777V10.1062C0.00202703 8.3812 1.4 6.98323 3.12501 6.9812H96.875C98.6 6.98323 99.998 8.3812 100 10.1062V13.4777C99.998 15.2027 98.6 16.6006 96.875 16.6027ZM3.12501 9.32496C2.69375 9.32546 2.34426 9.67496 2.34375 10.1062V13.4777C2.34426 13.9089 2.69375 14.2584 3.12501 14.2589H96.875C97.3062 14.2584 97.6557 13.9089 97.6562 13.4777V10.1062C97.6557 9.67496 97.3062 9.32546 96.875 9.32496H3.12501Z"/>
</symbol>
<symbol id="wardrobe2" viewBox="0 0 100 100">
<path d="M82.7649 100H17.2349C16.5878 100 16.0631 99.4753 16.0631 98.828V1.17179C16.0631 0.524663 16.5878 0 17.2349 0H82.7649C83.412 0 83.9369 0.524663 83.9369 1.17179V98.828C83.9367 99.4753 83.412 100 82.7649 100ZM18.4069 97.6562H81.593V2.34375H18.4069V97.6562Z"/>
<path d="M49.9998 71.4942C49.3527 71.4942 48.8279 71.119 48.8279 70.6564V0.837839C48.8279 0.37517 49.3525 0 49.9998 0C50.6471 0 51.1716 0.37517 51.1716 0.837839V70.6562C51.1718 71.1189 50.6471 71.4942 49.9998 71.4942V71.4942Z"/>
<path d="M49.9998 100H17.2349C16.5878 100 16.0631 99.4753 16.0631 98.828V84.5751C16.0631 83.928 16.5878 83.4033 17.2349 83.4033H49.9998C50.6469 83.4033 51.1716 83.928 51.1716 84.5751V98.828C51.1718 99.4753 50.6471 100 49.9998 100ZM18.4069 97.6562H48.828V85.7471H18.4069V97.6562Z"/>
<path d="M49.9998 85.7472H17.2349C16.5878 85.7472 16.0631 85.2225 16.0631 84.5752V70.3224C16.0631 69.6752 16.5878 69.1504 17.2349 69.1504H49.9998C50.6469 69.1504 51.1716 69.6751 51.1716 70.3224V84.5752C51.1718 85.2225 50.6471 85.7472 49.9998 85.7472ZM18.4067 83.4035H48.8279V71.4943H18.4069L18.4067 83.4035Z"/>
<path d="M35.2667 78.6206H31.9681C31.3209 78.6206 30.7963 78.0959 30.7963 77.4488C30.7963 76.8017 31.3209 76.2769 31.9681 76.2769H35.2667C35.9138 76.2769 36.4385 76.8015 36.4385 77.4488C36.4385 78.0961 35.9138 78.6206 35.2667 78.6206Z"/>
<path d="M43.0937 38.3537C42.4466 38.3537 41.9218 37.8291 41.9218 37.1819V34.3122C41.9218 33.665 42.4464 33.1404 43.0937 33.1404C43.741 33.1404 44.2655 33.665 44.2655 34.3122V37.1819C44.2655 37.8291 43.7408 38.3537 43.0937 38.3537Z"/>
<path d="M56.906 52.607C56.2589 52.607 55.7343 52.0823 55.7343 51.435V48.5653C55.7343 47.9181 56.2589 47.3933 56.906 47.3933C57.5532 47.3933 58.078 47.918 58.078 48.5653V51.435C58.078 52.0823 57.5533 52.607 56.906 52.607Z"/>
<path d="M35.2667 92.8735H31.9681C31.3209 92.8735 30.7963 92.3489 30.7963 91.7018C30.7963 91.0546 31.3209 90.5298 31.9681 90.5298H35.2667C35.9138 90.5298 36.4385 91.0545 36.4385 91.7018C36.4385 92.3491 35.9138 92.8735 35.2667 92.8735Z"/>
</symbol>
<symbol id="upBtn" viewBox="0 0 32 32">
<path fill="#44c697" style="fill: var(--color1, #44c697)" d="M26.811 14.27c0 5.971-4.84 10.811-10.811 10.811s-10.811-4.84-10.811-10.811c0-5.971 4.84-10.811 10.811-10.811s10.811 4.84 10.811 10.811z"></path>
<path fill="#fff" style="fill: var(--color2, #fff)" d="M16.306 10.623c-0.169-0.169-0.443-0.169-0.612 0l-2.752 2.752c-0.169 0.169-0.169 0.443 0 0.612s0.443 0.169 0.612 0l2.446-2.446 2.446 2.446c0.169 0.169 0.443 0.169 0.612 0s0.169-0.443 0-0.612l-2.752-2.752zM16.432 17.808v-6.88h-0.865v6.88h0.865z"></path>
</symbol>
</defs>
</svg>
